<svg width="24" height="24" viewBox="0 0 24 24" fill="none" xmlns="http://www.w3.org/2000/svg">
<path fill-rule="evenodd" clip-rule="evenodd" d="M7.84167 13.5836L6.62299 15.1069C6.57158 15.1711 6.49377 15.2086 6.41152 15.2086H6L6.54164 12.5002L6 9.79171H6.41152C6.49377 9.79171 6.57158 9.82917 6.62299 9.89337L7.84167 11.4167H10.8751L9.85657 6.32393C9.82719 6.17729 9.92232 6.03456 10.069 6.00526C10.0865 6.00172 10.1043 6 10.1221 6H10.3335C10.6695 6 10.9809 6.17629 11.1538 6.46448L14.1252 11.4166H17.2564C17.6967 11.4166 18.1265 11.5507 18.4887 11.8012L18.7159 11.9583C19.0151 12.1652 19.0899 12.5753 18.8831 12.8745C18.8379 12.9399 18.7813 12.9965 18.7159 13.0416L18.4887 13.1988C18.1265 13.4492 17.6967 13.5833 17.2564 13.5833H14.1252L11.1538 18.5355C10.9809 18.8236 10.6695 18.9999 10.3335 18.9999H10.1221C10.1043 18.9999 10.0865 18.9982 10.069 18.9947C9.92232 18.9654 9.82719 18.8227 9.85657 18.676L10.8751 13.5832L7.84167 13.5836Z" fill="context-fill" fill-opacity="context-fill-opacity"/>
</svg>
