<svg width="24" height="24" viewBox="0 0 24 24" fill="none" xmlns="http://www.w3.org/2000/svg">
<path d="M6.49891 12.2216C6.2136 12.2074 5.99839 12.4631 6.05591 12.7429C6.27686 13.8176 6.80813 14.8085 7.58934 15.5897C8.37055 16.3709 9.36142 16.9022 10.4361 17.1231C10.7159 17.1807 10.9716 16.9654 10.9574 16.6801C10.947 16.4712 10.9228 16.2631 10.8848 16.0573C10.8439 15.835 10.6093 15.715 10.3969 15.7922L10.3654 15.8036C10.1811 15.8706 9.97752 15.7752 9.91117 15.5907C9.84515 15.4071 9.94 15.2047 10.1233 15.138L10.1559 15.1262C10.3683 15.0489 10.4715 14.8064 10.3606 14.6093C10.2775 14.4616 10.1864 14.3184 10.0877 14.1806C9.95583 13.9963 9.69182 13.9872 9.53158 14.1475L9.50608 14.173C9.368 14.3111 9.14414 14.3111 9.00607 14.173C8.86799 14.0349 8.86799 13.811 9.00607 13.673L9.03077 13.6483C9.19054 13.4885 9.18148 13.2253 8.99778 13.0937C8.85932 12.9945 8.71555 12.903 8.56712 12.8195C8.37063 12.709 8.12886 12.8121 8.05204 13.024L8.04067 13.0554C7.97418 13.2388 7.77177 13.3338 7.58816 13.2678C7.4038 13.2015 7.3084 12.998 7.37533 12.8139L7.38687 12.7821C7.46406 12.5697 7.34402 12.3352 7.12179 12.2942C6.91596 12.2563 6.70788 12.2321 6.49891 12.2216Z" fill="context-fill" fill-opacity="context-fill-opacity"/>
<path d="M12.7429 6.05602C12.463 5.99849 12.2074 6.21371 12.2216 6.49902C12.232 6.70798 12.2562 6.91607 12.2942 7.1219C12.3351 7.34412 12.5697 7.46417 12.7821 7.38698L12.8136 7.37551C12.9979 7.30854 13.2015 7.404 13.2678 7.58847C13.3338 7.77203 13.239 7.97442 13.0557 8.04111L13.0231 8.05295C12.8106 8.13026 12.7075 8.3728 12.8184 8.56985C12.9015 8.71759 12.9926 8.86071 13.0913 8.99856C13.2232 9.18283 13.4872 9.19192 13.6474 9.03168L13.6729 9.00617C13.811 8.8681 14.0348 8.8681 14.1729 9.00617C14.311 9.14425 14.311 9.36811 14.1729 9.50619L14.1483 9.53084C13.9885 9.69062 13.9976 9.95388 14.1814 10.0854C14.3198 10.1845 14.4635 10.2759 14.612 10.3593C14.8087 10.4699 15.0506 10.3668 15.1277 10.1548L15.1395 10.1224C15.2062 9.93889 15.409 9.84419 15.5925 9.91082C15.7761 9.97748 15.8709 10.1804 15.8041 10.364L15.7923 10.3965C15.715 10.6091 15.8352 10.8441 16.0578 10.885C16.2634 10.9229 16.4713 10.9471 16.6801 10.9575C16.9654 10.9717 17.1806 10.716 17.1231 10.4362C16.9021 9.36153 16.3709 8.37066 15.5896 7.58945C14.8084 6.80824 13.8176 6.27696 12.7429 6.05602Z" fill="context-fill" fill-opacity="context-fill-opacity"/>
<path d="M15.717 11.7797C15.4943 11.7321 15.2642 11.8474 15.1863 12.0615L15.1592 12.136C15.0924 12.3195 14.8896 12.4142 14.7061 12.3474C14.5227 12.2807 14.428 12.0779 14.4947 11.8944L14.5221 11.8189C14.6004 11.6036 14.4968 11.3661 14.2941 11.2595C14.0161 11.1133 13.7508 10.9439 13.5011 10.7533C13.3186 10.6139 13.059 10.6202 12.8966 10.7826L12.8396 10.8396C12.7015 10.9776 12.4777 10.9776 12.3396 10.8396C12.2015 10.7015 12.2015 10.4776 12.3396 10.3395L12.3966 10.2826C12.5589 10.1202 12.5653 9.8605 12.4259 9.67801C12.2352 9.42834 12.0659 9.16308 11.9196 8.88504C11.813 8.6823 11.5756 8.57876 11.3603 8.657L11.2847 8.68445C11.1013 8.75113 10.8985 8.65648 10.8317 8.47304C10.765 8.28955 10.8596 8.0867 11.0431 8.01995L11.1177 7.99281C11.3317 7.91494 11.447 7.68484 11.3995 7.46212C11.3323 7.14735 11.2919 6.82754 11.2788 6.50613C11.2666 6.20909 11.0236 5.96094 10.7296 6.00512C9.54523 6.1831 8.44321 6.73579 7.5895 7.5895C6.73579 8.44321 6.1831 9.54523 6.00512 10.7296C5.96094 11.0236 6.20909 11.2666 6.50613 11.2788C6.82754 11.2919 7.14735 11.3323 7.46212 11.3995C7.68484 11.447 7.91494 11.3317 7.99281 11.1177L8.01995 11.0431C8.0867 10.8596 8.28955 10.765 8.47304 10.8317C8.65648 10.8985 8.75113 11.1013 8.68445 11.2847L8.657 11.3603C8.57876 11.5756 8.6823 11.813 8.88504 11.9196C9.16308 12.0659 9.42834 12.2352 9.67801 12.4259C9.8605 12.5653 10.1202 12.5589 10.2826 12.3966L10.3395 12.3396C10.4776 12.2015 10.7015 12.2015 10.8396 12.3396C10.9776 12.4777 10.9776 12.7015 10.8396 12.8396L10.7826 12.8966C10.6202 13.059 10.6139 13.3186 10.7533 13.5011C10.9439 13.7508 11.1133 14.0161 11.2595 14.2941C11.3661 14.4968 11.6036 14.6004 11.8189 14.5221L11.8944 14.4947C12.0779 14.428 12.2807 14.5227 12.3474 14.7061C12.4142 14.8896 12.3195 15.0924 12.136 15.1592L12.0615 15.1863C11.8474 15.2642 11.7321 15.4943 11.7797 15.717C11.8469 16.0318 11.8872 16.3516 11.9004 16.673C11.9125 16.97 12.1556 17.2182 12.4496 17.174C13.6339 16.996 14.7359 16.4434 15.5896 15.5896C16.4434 14.7359 16.996 13.6339 17.174 12.4496C17.2182 12.1556 16.97 11.9125 16.673 11.9004C16.3516 11.8872 16.0318 11.8469 15.717 11.7797Z" fill="context-fill" fill-opacity="context-fill-opacity"/>
</svg>
