<svg width="24" height="24" viewBox="0 0 24 24" fill="none" xmlns="http://www.w3.org/2000/svg">
<path fill-rule="evenodd" clip-rule="evenodd" d="M9.9076 10.428H13.479L11.7747 8.04188L12.1816 7.75126L12.5884 7.46064L14.7079 10.428H17.113C17.4542 10.428 17.6952 10.7623 17.5873 11.0861L16.0346 15.7442C15.8985 16.1525 15.5163 16.428 15.0859 16.428H8.52743C8.097 16.428 7.71486 16.1525 7.57875 15.7442L6.02604 11.0861C5.91812 10.7623 6.1591 10.428 6.50038 10.428H8.6787L10.7982 7.46064C11.2369 6.84645 12.1497 6.84646 12.5884 7.46064L12.1816 7.75126L11.7747 8.04188C11.7348 7.98604 11.6518 7.98604 11.6119 8.04188L9.9076 10.428ZM10.8067 13.928C10.8067 13.3757 11.2544 12.928 11.8067 12.928C12.359 12.928 12.8067 13.3757 12.8067 13.928C12.8067 14.4802 12.359 14.928 11.8067 14.928C11.2544 14.928 10.8067 14.4802 10.8067 13.928Z" fill="context-fill" fill-opacity="context-fill-opacity"/>
</svg>
