<svg width="24" height="24" viewBox="0 0 24 24" fill="none" xmlns="http://www.w3.org/2000/svg">
<path d="M16.7139 11C17.4229 10.9999 18 11.7344 18 12.6367V16.4541C18 16.7553 17.8081 17 17.5713 17C17.3347 16.9999 17.1426 16.7554 17.1426 16.4541V15.9092H6.85742V16.4541C6.85742 16.7553 6.66543 16.9999 6.42871 17C6.19205 17 6 16.7554 6 16.4541V12.6367C6 11.7344 6.57713 11 7.28613 11H16.7139ZM16.5459 7C16.7967 7.00024 17 7.19209 17 7.42871V9.75C17 9.88807 16.8881 10 16.75 10H15.8867C15.7486 10 15.6367 9.88807 15.6367 9.75V9.57129C15.6367 9.0987 15.2288 8.714 14.7275 8.71387H13.3633C12.8621 8.71409 12.4542 9.09873 12.4541 9.57129V9.75C12.4541 9.88807 12.3422 10 12.2041 10H11.7959C11.6578 10 11.5459 9.88807 11.5459 9.75V9.57129C11.5458 9.09875 11.1379 8.71409 10.6367 8.71387H9.27246C8.77124 8.714 8.36335 9.09867 8.36328 9.57129V9.75C8.36328 9.88807 8.25135 10 8.11328 10H7.25C7.11193 10 7 9.88807 7 9.75V7.42871C7 7.19219 7.2032 7.00024 7.4541 7H16.5459Z" fill="context-fill" fill-opacity="context-fill-opacity"/>
</svg>
