<svg width="24" height="24" viewBox="0 0 24 24" fill="none" xmlns="http://www.w3.org/2000/svg">
<path fill-rule="evenodd" clip-rule="evenodd" d="M7 9.75C7 9.88807 7.11193 10 7.25 10H8.11358C8.25165 10 8.36358 9.88807 8.36358 9.75V9.57141C8.36358 9.09866 8.77134 8.71422 9.27272 8.71422H10.6363C11.1377 8.71422 11.5454 9.09868 11.5454 9.57141V9.75C11.5454 9.88807 11.6574 10 11.7954 10H12.2046C12.3426 10 12.4546 9.88807 12.4546 9.75V9.57141C12.4546 9.09866 12.8623 8.71422 13.3637 8.71422H14.7273C15.2287 8.71422 15.6364 9.09868 15.6364 9.57141V9.75C15.6364 9.88807 15.7484 10 15.8864 10H16.75C16.8881 10 17 9.88807 17 9.75V7.42859C17 7.19182 16.7964 7 16.5454 7H7.45457C7.20345 7 7 7.19193 7 7.42859V9.75ZM18 16.4545V12.6364L17.9999 12.6363C17.9999 11.7339 17.4232 10.9999 16.7142 11H7.28575C6.57675 11 6.0001 11.7339 6.0001 12.6363L6 16.4544C6 16.7557 6.19193 16.9999 6.42859 16.9999C6.66536 16.9999 6.85719 16.7556 6.85719 16.4544V15.9089L17.1428 15.909V16.4545C17.1428 16.7559 17.3347 17 17.5714 17C17.8082 17 18 16.7557 18 16.4545Z" fill="context-fill" fill-opacity="context-fill-opacity"/>
</svg>
