<svg width="24" height="24" viewBox="0 0 24 24" fill="none" xmlns="http://www.w3.org/2000/svg">
<path d="M12.2102 17.9021C13.031 17.9021 13.7036 17.2409 13.7036 16.4201H10.7167C10.7167 17.2409 11.3779 17.9135 12.2102 17.9021ZM17.215 14.425C16.7704 13.9461 15.9267 13.2165 15.9267 10.8338C15.9267 9.03253 14.6613 7.57327 12.9512 7.23125V6.74103C12.9512 6.5445 12.8731 6.35601 12.7341 6.21704C12.5952 6.07807 12.4067 6 12.2102 6C12.0136 6 11.8251 6.07807 11.6862 6.21704C11.5472 6.35601 11.4691 6.5445 11.4691 6.74103V7.23125C9.75904 7.58467 8.49359 9.03253 8.49359 10.8338C8.49359 13.2165 7.66135 13.9461 7.20533 14.425C7.06853 14.5732 7.00012 14.7556 7.00012 14.9266C7.00012 15.3028 7.30794 15.6676 7.74115 15.679H16.6791C17.1238 15.679 17.4202 15.3142 17.4202 14.9266C17.4202 14.7442 17.3632 14.5732 17.215 14.425Z" fill="context-fill" fill-opacity="context-fill-opacity"/>
</svg>
