<svg width="24" height="24" viewBox="0 0 24 24" fill="none" xmlns="http://www.w3.org/2000/svg">
<path d="M6 14.9291V6.34512C6 6.25062 6.06948 6.1705 6.16303 6.15714L6.70303 6.07999C8.51235 5.82152 10.3555 6.19373 11.9227 7.13407C11.9707 7.16283 12 7.21464 12 7.27054V17.1804C10.6894 16.1975 9.14493 15.5735 7.51931 15.3703L6.24936 15.2116C6.1069 15.1938 6 15.0727 6 14.9291Z" fill="context-fill" fill-opacity="context-fill-opacity"/>
<path d="M19 14.9291L19 6.34512C19 6.25062 18.9305 6.1705 18.837 6.15714L18.297 6.08C16.4876 5.82152 14.6445 6.19373 13.0773 7.13407C13.0293 7.16283 13 7.21464 13 7.27054L13 17.1804C14.3106 16.1975 15.8551 15.5735 17.4807 15.3703L18.7506 15.2116C18.8931 15.1938 19 15.0727 19 14.9291Z" fill="context-fill" fill-opacity="context-fill-opacity"/>
</svg>
