<svg width="24" height="24" viewBox="0 0 24 24" fill="none" xmlns="http://www.w3.org/2000/svg">
<path fill-rule="evenodd" clip-rule="evenodd" d="M12.5 18C16.0899 18 19 15.0899 19 11.5C19 7.91015 16.0899 5 12.5 5C8.91015 5 6 7.91015 6 11.5C6 12.9273 6.46006 14.2472 7.23998 15.3194C7.26155 15.8859 7.18156 16.4553 7 17L6.5 18.5L9.44403 17.2383C10.355 17.7244 11.3953 18 12.5 18ZM9.5 13C10.0523 13 10.5 12.5523 10.5 12C10.5 11.4477 10.0523 11 9.5 11C8.94772 11 8.5 11.4477 8.5 12C8.5 12.5523 8.94772 13 9.5 13ZM12.5 13C13.0523 13 13.5 12.5523 13.5 12C13.5 11.4477 13.0523 11 12.5 11C11.9477 11 11.5 11.4477 11.5 12C11.5 12.5523 11.9477 13 12.5 13ZM16.5 12C16.5 12.5523 16.0523 13 15.5 13C14.9477 13 14.5 12.5523 14.5 12C14.5 11.4477 14.9477 11 15.5 11C16.0523 11 16.5 11.4477 16.5 12Z" fill="context-fill" fill-opacity="context-fill-opacity"/>
</svg>
