#filter dumbComments emptyLines substitution
# This Source Code Form is subject to the terms of the Mozilla Public
# License, v. 2.0. If a copy of the MPL was not distributed with this
# file, You can obtain one at http://mozilla.org/MPL/2.0/.
<svg width="24" height="24" viewBox="0 0 24 24" fill="none" xmlns="http://www.w3.org/2000/svg">
<path d="M12.5 5C16.0899 5 19 7.91015 19 11.5C19 15.0899 16.0899 18 12.5 18C11.3952 18 10.3553 17.7235 9.44434 17.2373L6.5 18.5L7 17C7.18199 16.454 7.26137 15.8832 7.23926 15.3154C6.46065 14.2437 6 12.926 6 11.5C6 7.91015 8.91015 5 12.5 5ZM9.5 11C8.94772 11 8.5 11.4477 8.5 12C8.5 12.5523 8.94772 13 9.5 13C10.0523 13 10.5 12.5523 10.5 12C10.5 11.4477 10.0523 11 9.5 11ZM12.5 11C11.9477 11 11.5 11.4477 11.5 12C11.5 12.5523 11.9477 13 12.5 13C13.0523 13 13.5 12.5523 13.5 12C13.5 11.4477 13.0523 11 12.5 11ZM15.5 11C14.9477 11 14.5 11.4477 14.5 12C14.5 12.5523 14.9477 13 15.5 13C16.0523 13 16.5 12.5523 16.5 12C16.5 11.4477 16.0523 11 15.5 11Z" fill="context-fill" fill-opacity="context-fill-opacity"/>
</svg>
