<svg width="24" height="24" viewBox="0 0 24 24" fill="none" xmlns="http://www.w3.org/2000/svg">
<path d="M15.5 6.5C16.6046 6.5 17.5 7.39543 17.5 8.5V15.5C17.5 16.6046 16.6046 17.5 15.5 17.5H8.5C7.39543 17.5 6.5 16.6046 6.5 15.5V8.5C6.5 7.39543 7.39543 6.5 8.5 6.5H15.5ZM14.8291 9.12402C14.6213 8.9422 14.3059 8.96314 14.124 9.1709L10.9756 12.7686L9.85352 11.6465C9.65825 11.4512 9.34175 11.4512 9.14648 11.6465C8.95122 11.8417 8.95122 12.1583 9.14648 12.3535L10.6465 13.8535C10.7443 13.9514 10.8783 14.0046 11.0166 14C11.1549 13.9954 11.2849 13.9332 11.376 13.8291L14.876 9.8291C15.0578 9.62131 15.0369 9.30587 14.8291 9.12402Z" fill="context-fill" fill-opacity="context-fill-opacity"/>
</svg>
