<svg width="24" height="24" viewBox="0 0 24 24" fill="none" xmlns="http://www.w3.org/2000/svg">
<path fill-rule="evenodd" clip-rule="evenodd" d="M8.5 6.5C7.39543 6.5 6.5 7.39543 6.5 8.5V15.5C6.5 16.6046 7.39543 17.5 8.5 17.5H15.5C16.6046 17.5 17.5 16.6046 17.5 15.5V8.5C17.5 7.39543 16.6046 6.5 15.5 6.5H8.5ZM14.8763 9.82925C15.0581 9.62143 15.0371 9.30555 14.8293 9.12371C14.6214 8.94187 14.3056 8.96293 14.1237 9.17075L10.9756 12.7685L9.85355 11.6464C9.65829 11.4512 9.34171 11.4512 9.14645 11.6464C8.95118 11.8417 8.95118 12.1583 9.14645 12.3536L10.6464 13.8536C10.7443 13.9514 10.8783 14.0043 11.0166 13.9997C11.1549 13.9951 11.2852 13.9334 11.3763 13.8293L14.8763 9.82925Z" fill="context-fill" fill-opacity="context-fill-opacity"/>
</svg>
