#filter dumbComments emptyLines substitution
# This Source Code Form is subject to the terms of the Mozilla Public
# License, v. 2.0. If a copy of the MPL was not distributed with this
# file, You can obtain one at http://mozilla.org/MPL/2.0/.
<svg width="24" height="24" viewBox="0 0 24 24" fill="none" xmlns="http://www.w3.org/2000/svg">
<path fill-rule="evenodd" clip-rule="evenodd" d="M11.9443 8C10.3317 8 9.06974 8.91667 8.65452 10.0327C8.40496 10.7035 7.87607 11.2394 7.2245 11.5074C6.37374 11.8572 5.7777 12.6935 5.7777 13.6667C5.7777 14.9553 6.82236 16 8.11102 16H15.8887C17.1774 16 18.2221 14.9553 18.2221 13.6667C18.2221 12.6706 17.5975 11.8179 16.7151 11.4836C16.0411 11.2283 15.4871 10.6892 15.2237 10.0055C14.7986 8.90172 13.5432 8 11.9443 8ZM7.71729 9.68401C7.56689 10.0883 7.24313 10.4185 6.84421 10.5825C5.63154 11.0811 4.77771 12.2742 4.77771 13.6667C4.77771 15.5076 6.27008 17 8.11102 17H15.8887C17.7297 17 19.222 15.5076 19.222 13.6667C19.222 12.2414 18.3276 11.0251 17.0694 10.5485C16.6559 10.3918 16.3158 10.0587 16.1569 9.64606C15.5643 8.10776 13.9022 7 11.9443 7C9.97032 7 8.29694 8.12601 7.71729 9.68401Z" fill="context-fill" fill-opacity="context-fill-opacity"/>
</svg>
