<svg width="24" height="24" viewBox="0 0 24 24" fill="none" xmlns="http://www.w3.org/2000/svg">
<path fill-rule="evenodd" clip-rule="evenodd" d="M9.03033 7.96967C9.32322 8.26256 9.32322 8.73744 9.03033 9.03033L6.06066 12L9.03033 14.9697C9.32322 15.2626 9.32322 15.7374 9.03033 16.0303C8.73744 16.3232 8.26256 16.3232 7.96967 16.0303L4.46967 12.5303C4.17678 12.2374 4.17678 11.7626 4.46967 11.4697L7.96967 7.96967C8.26256 7.67678 8.73744 7.67678 9.03033 7.96967ZM14.9697 7.96967C15.2626 7.67678 15.7374 7.67678 16.0303 7.96967L19.5303 11.4697C19.8232 11.7626 19.8232 12.2374 19.5303 12.5303L16.0303 16.0303C15.7374 16.3232 15.2626 16.3232 14.9697 16.0303C14.6768 15.7374 14.6768 15.2626 14.9697 14.9697L17.9393 12L14.9697 9.03033C14.6768 8.73744 14.6768 8.26256 14.9697 7.96967Z" fill="context-fill" fill-opacity="context-fill-opacity"/>
</svg>
