<svg width="24" height="24" viewBox="0 0 24 24" fill="none" xmlns="http://www.w3.org/2000/svg">
<path fill-rule="evenodd" clip-rule="evenodd" d="M12.5014 6C15.743 6 17.9984 7.12567 17.9987 8.13923C17.9987 8.13934 17.9988 8.13943 17.9989 8.13943C17.999 8.13943 17.9991 8.13952 17.9991 8.13964C17.9988 9.14934 15.7433 10.275 12.5014 10.275C9.25943 10.275 7 9.14915 7 8.13943C7 7.12582 9.25931 6 12.5014 6ZM12.5014 12.7477C9.25943 12.7477 7 11.6218 7 10.6121V9.96112C7 9.79071 7.20349 9.69343 7.34531 9.78791C8.45886 10.5297 10.3128 10.9991 12.5014 10.9991C14.6854 10.9991 16.5414 10.5301 17.6528 9.78881C17.7948 9.69415 17.9987 9.79147 17.9987 9.96206V10.6121C17.9987 11.6219 15.7436 12.7477 12.5014 12.7477ZM7 13.1043C7 14.114 9.25943 15.2398 12.5014 15.2398C14.6757 15.2398 16.405 14.733 17.3106 14.0947C17.4111 14.002 17.5194 13.9169 17.6277 13.8317L17.6278 13.8316C17.8678 13.5957 17.9993 13.3441 17.9993 13.1043V12.4328C17.9993 12.2625 17.7961 12.1653 17.6545 12.2598C16.5321 13.0082 14.6611 13.4911 12.502 13.4911C10.3423 13.4911 8.46807 13.0081 7.34514 12.2596C7.20349 12.1651 7.00042 12.2623 7.00033 12.4325L7 13.1043ZM12.5014 17.732C9.25943 17.732 7 16.6061 7 15.5964L7.00033 14.9246C7.00042 14.7544 7.20349 14.6573 7.34513 14.7517C8.46807 15.5002 10.3423 15.9832 12.502 15.9832C14.6611 15.9832 16.5321 15.5003 17.6545 14.7519C17.7961 14.6574 17.9993 14.7546 17.9993 14.9249V15.5964C17.9993 15.8362 17.8678 16.0878 17.6278 16.3237L17.6277 16.3238C17.5194 16.409 17.4111 16.4941 17.3106 16.5869C16.405 17.2251 14.6757 17.732 12.5014 17.732Z" fill="context-fill" fill-opacity="context-fill-opacity"/>
</svg>
