#filter dumbComments emptyLines substitution
# This Source Code Form is subject to the terms of the Mozilla Public
# License, v. 2.0. If a copy of the MPL was not distributed with this
# file, You can obtain one at http://mozilla.org/MPL/2.0/.
<svg width="24" height="24" viewBox="0 0 24 24" fill="none" xmlns="http://www.w3.org/2000/svg">
<path d="M17.999 15.5967C17.9989 15.8364 17.8678 16.0884 17.6279 16.3242C17.5197 16.4093 17.411 16.4942 17.3105 16.5869C16.4049 17.2252 14.6752 17.7324 12.501 17.7324C9.25954 17.7323 7.00044 16.6063 7 15.5967L7.0006 14.9247C7.00075 14.7546 7.20374 14.6575 7.34534 14.7519C8.46831 15.5003 10.3425 15.9834 12.502 15.9834C14.6609 15.9834 16.5319 15.5005 17.6543 14.7522C17.7959 14.6578 17.999 14.755 17.999 14.9253V15.5967ZM17.999 13.1045C17.9989 13.3442 17.8678 13.5962 17.6279 13.832C17.5197 13.9172 17.4111 14.002 17.3105 14.0947C16.4049 14.733 14.6752 15.2402 12.501 15.2402C9.25947 15.2401 7.00034 14.1141 7 13.1045L7.0006 12.4326C7.00075 12.2624 7.20374 12.1653 7.34534 12.2597C8.4683 13.0081 10.3424 13.4912 12.502 13.4912C14.6609 13.4912 16.5319 13.0083 17.6543 12.26C17.7959 12.1656 17.999 12.2628 17.999 12.4331V13.1045ZM17.999 10.6123C17.9988 11.622 15.7429 12.748 12.501 12.748C9.25941 12.7479 7.00026 11.6219 7 10.6123V9.96135C7 9.79094 7.20348 9.69366 7.34531 9.78812C8.45881 10.5298 10.3126 10.999 12.501 10.999C14.6849 10.999 16.5416 10.5304 17.6531 9.7892C17.7951 9.69455 17.999 9.79188 17.999 9.96248V10.6123ZM12.501 6C15.6413 6 17.8566 7.05643 17.9922 8.04395L17.999 8.13965C17.9987 9.14935 15.7429 10.2754 12.501 10.2754C9.25945 10.2753 7.00032 9.14926 7 8.13965C7 7.12608 9.2591 6.00011 12.501 6Z" fill="context-fill" fill-opacity="context-fill-opacity"/>
</svg>
