<svg width="24" height="24" viewBox="0 0 24 24" fill="none" xmlns="http://www.w3.org/2000/svg">
<path fill-rule="evenodd" clip-rule="evenodd" d="M5.33435 5.38869C5.25328 5.47796 5.19794 5.58755 5.17422 5.70578C5.14355 5.85845 4.94155 8.95378 7.82755 11.8391C10.5707 14.5804 12.3725 14.7081 13.5361 14.6171C13.6102 14.6113 13.6833 14.6375 13.7358 14.69L17.8461 18.8003C17.9437 18.898 18.102 18.898 18.1997 18.8003L18.7888 18.2112C18.8864 18.1136 18.8864 17.9553 18.7888 17.8577L13.6137 12.6826C13.516 12.5849 13.516 12.4266 13.6137 12.329L14.3174 11.6252C14.4151 11.5276 14.5734 11.5276 14.671 11.6252L15.3562 12.3104C15.4812 12.4354 15.6508 12.5056 15.8276 12.5056C16.0043 12.5056 16.1739 12.4354 16.2989 12.3104L19.9268 8.68256C20.0244 8.58493 20.0244 8.42663 19.9268 8.329L19.3377 7.73989C19.24 7.64226 19.0817 7.64226 18.9841 7.73989L16.0043 10.7197C15.9067 10.8173 15.7484 10.8173 15.6508 10.7197L15.6137 10.6826C15.516 10.5849 15.516 10.4266 15.6137 10.329L18.5934 7.34922C18.6911 7.25159 18.6911 7.0933 18.5934 6.99567L18.0043 6.40656C17.9067 6.30893 17.7484 6.30893 17.6508 6.40656L14.671 9.38634C14.5734 9.48397 14.4151 9.48397 14.3174 9.38634L14.2803 9.34922C14.1827 9.25159 14.1827 9.0933 14.2803 8.99567L17.2601 6.01589C17.3577 5.91826 17.3577 5.75997 17.2601 5.66234L16.671 5.07322C16.5734 4.97559 16.4151 4.97559 16.3174 5.07322L12.6896 8.70111C12.5646 8.82613 12.4944 8.99567 12.4944 9.17245C12.4944 9.34922 12.5646 9.51876 12.6896 9.64378L13.3748 10.329C13.4724 10.4266 13.4724 10.5849 13.3748 10.6826L12.671 11.3863C12.5734 11.4839 12.4151 11.4839 12.3174 11.3863L6.29889 5.36511C6.21355 5.27991 6.1067 5.21946 5.98972 5.19018C5.87274 5.1609 5.75001 5.1639 5.6346 5.19886C5.51919 5.23382 5.41542 5.29943 5.33435 5.38869ZM6.98405 18.605C7.08168 18.7026 7.23997 18.7026 7.3376 18.605L10.2649 15.6777C10.39 15.5526 10.3492 15.3404 10.1898 15.2638C9.94189 15.1448 9.69988 15.0139 9.46457 14.8716C9.36429 14.8109 9.23517 14.8247 9.15226 14.9076L6.39509 17.6623C6.29739 17.76 6.29735 17.9183 6.39501 18.016L6.98405 18.605Z" fill="context-fill" fill-opacity="context-fill-opacity"/>
</svg>
