<svg width="24" height="24" viewBox="0 0 24 24" fill="none" xmlns="http://www.w3.org/2000/svg">
<path d="M12.6896 8.70099C12.5647 8.82601 12.4943 8.99589 12.4943 9.17267C12.4944 9.34929 12.5648 9.51842 12.6896 9.64337L13.3752 10.3289C13.4728 10.4265 13.4728 10.5848 13.3752 10.6825L12.6711 11.3865C12.5735 11.4841 12.4152 11.4841 12.3175 11.3864L6.29901 5.36505C6.21367 5.27985 6.10642 5.21952 5.98944 5.19025C5.87263 5.16106 5.7502 5.16418 5.63495 5.19904C5.51955 5.23399 5.41524 5.29923 5.33417 5.38849C5.2531 5.47776 5.19773 5.58764 5.17401 5.70587C5.14326 5.8601 4.94246 8.95423 7.82733 11.8387C10.5702 14.5797 12.3721 14.7081 13.5358 14.6172C13.6099 14.6114 13.6829 14.6376 13.7354 14.6902L17.8459 18.8006C17.9435 18.8982 18.1018 18.8982 18.1994 18.8006L18.7892 18.2108C18.8868 18.1132 18.8868 17.9548 18.7892 17.8572L13.6135 12.6825C13.5159 12.5848 13.5159 12.4265 13.6135 12.3289L14.3175 11.6248C14.4152 11.5272 14.5735 11.5272 14.6711 11.6248L15.3566 12.3104C15.4816 12.4352 15.6507 12.5056 15.8273 12.5057C16.0041 12.5057 16.174 12.4353 16.299 12.3104L19.9269 8.68245C20.0246 8.58482 20.0246 8.42653 19.9269 8.3289L19.3381 7.74004C19.2404 7.64242 19.0822 7.64241 18.9845 7.74002L16.0041 10.7196C15.9065 10.8172 15.7482 10.8172 15.6506 10.7196L15.6135 10.6825C15.5159 10.5848 15.5159 10.4265 15.6135 10.3289L18.5939 7.34945C18.6915 7.25182 18.6915 7.09351 18.5939 6.99587L18.0041 6.40611C17.9065 6.30847 17.7482 6.30848 17.6506 6.40614L14.6711 9.38646C14.5735 9.48412 14.4152 9.48413 14.3175 9.38649L14.2804 9.34942C14.1828 9.2518 14.1828 9.09353 14.2804 8.99589L17.26 6.01546C17.3576 5.91783 17.3576 5.75955 17.26 5.66193L16.6711 5.07308C16.5735 4.97545 16.4152 4.97545 16.3175 5.07308L12.6896 8.70099ZM6.39481 17.662C6.29714 17.7596 6.29706 17.9179 6.39463 18.0155L6.98359 18.6051C7.08119 18.7028 7.23954 18.7029 7.33721 18.6052L10.2652 15.6781C10.3904 15.553 10.3496 15.3407 10.1901 15.2641C9.94213 15.1449 9.69992 15.0137 9.46452 14.8713C9.36425 14.8106 9.23513 14.8244 9.15223 14.9072L6.39481 17.662Z" fill="context-fill" fill-opacity="context-fill-opacity"/>
</svg>
