<svg width="24" height="24" viewBox="0 0 24 24" fill="none" xmlns="http://www.w3.org/2000/svg">
<path d="M8 18.2705H7V12.7705V6.77048C7 6.52606 7.17671 6.31747 7.4178 6.27729L8.49856 6.09716C9.84606 5.87258 11.2297 6.03924 12.4854 6.57737C13.5205 7.02102 14.6578 7.17143 15.7727 7.01216L17.4293 6.77551C17.5728 6.75501 17.7181 6.79779 17.8276 6.89276C17.9371 6.98773 18 7.12554 18 7.27048V13.2705C18 13.5226 17.8122 13.7353 17.562 13.7666L15.0917 14.0754C14.0044 14.2113 12.9004 14.0692 11.883 13.6622C11.2361 13.4034 10.5457 13.2705 9.849 13.2705L8 13.2705V18.2705Z" fill="context-fill" fill-opacity="context-fill-opacity"/>
</svg>
