<svg width="24" height="24" viewBox="0 0 24 24" fill="none" xmlns="http://www.w3.org/2000/svg">
<path d="M13 18H11V17H13V18ZM13 15.75C13.2761 15.75 13.5 15.9739 13.5 16.25C13.5 16.5261 13.2761 16.75 13 16.75H11C10.7239 16.75 10.5 16.5261 10.5 16.25C10.5 15.9739 10.7239 15.75 11 15.75H13ZM12 5C14.4853 5 16.5 7.01472 16.5 9.5C16.5 11.1267 15.6362 12.5507 14.3428 13.3408C13.8645 13.633 13.5 14.1173 13.5 14.6777C13.5 14.817 13.4786 14.9512 13.4385 15.0771C13.346 15.3674 13.0341 15.5 12.7295 15.5H12.25V12.2168C12.4207 12.1768 12.5804 12.1054 12.7129 12.0283C12.9122 11.9125 13.0794 11.7741 13.1768 11.6768L12.8232 11.3232C12.754 11.3925 12.621 11.5042 12.4619 11.5967C12.2993 11.6912 12.1362 11.75 12 11.75C11.8638 11.75 11.7007 11.6912 11.5381 11.5967C11.379 11.5042 11.246 11.3925 11.1768 11.3232L10.8232 11.6768C10.9206 11.7741 11.0879 11.9125 11.2871 12.0283C11.4196 12.1054 11.5793 12.1768 11.75 12.2168V15.5H11.2705C10.9659 15.5 10.654 15.3674 10.5615 15.0771C10.5214 14.9512 10.5 14.817 10.5 14.6777C10.5 14.1173 10.1355 13.633 9.65723 13.3408C8.36377 12.5507 7.5 11.1267 7.5 9.5C7.5 7.01472 9.51472 5 12 5Z" fill="context-fill" fill-opacity="context-fill-opacity"/>
</svg>
