#filter dumbComments emptyLines substitution
# This Source Code Form is subject to the terms of the Mozilla Public
# License, v. 2.0. If a copy of the MPL was not distributed with this
# file, You can obtain one at http://mozilla.org/MPL/2.0/.
<svg width="24" height="24" viewBox="0 0 24 24" fill="none" xmlns="http://www.w3.org/2000/svg">
<path d="M6 6.5C6 6.22386 6.22386 6 6.5 6H10.5C10.7761 6 11 6.22386 11 6.5V10.5C11 10.7761 10.7761 11 10.5 11H6.5C6.22386 11 6 10.7761 6 10.5V6.5Z" fill="context-fill" fill-opacity="context-fill-opacity"/>
<path d="M6 13.5C6 13.2239 6.22386 13 6.5 13H10.5C10.7761 13 11 13.2239 11 13.5V17.5C11 17.7761 10.7761 18 10.5 18H6.5C6.22386 18 6 17.7761 6 17.5V13.5Z" fill="context-fill" fill-opacity="context-fill-opacity"/>
<path d="M13 6.5C13 6.22386 13.2239 6 13.5 6H17.5C17.7761 6 18 6.22386 18 6.5V10.5C18 10.7761 17.7761 11 17.5 11H13.5C13.2239 11 13 10.7761 13 10.5V6.5Z" fill="context-fill" fill-opacity="context-fill-opacity"/>
<path d="M13 13.5C13 13.2239 13.2239 13 13.5 13H17.5C17.7761 13 18 13.2239 18 13.5V17.5C18 17.7761 17.7761 18 17.5 18H13.5C13.2239 18 13 17.7761 13 17.5V13.5Z" fill="context-fill" fill-opacity="context-fill-opacity"/>
</svg>
