#filter dumbComments emptyLines substitution
# This Source Code Form is subject to the terms of the Mozilla Public
# License, v. 2.0. If a copy of the MPL was not distributed with this
# file, You can obtain one at http://mozilla.org/MPL/2.0/.
<svg width="24" height="24" viewBox="0 0 24 24" fill="none" xmlns="http://www.w3.org/2000/svg">
<path d="M14.625 6.75C14.1268 6.74863 13.6342 6.85514 13.1811 7.06222C12.728 7.2693 12.325 7.57204 12 7.94963C11.675 7.57204 11.2721 7.2693 10.8189 7.06222C10.3658 6.85514 9.87322 6.74863 9.37502 6.75C8.68778 6.75107 8.01607 6.95442 7.44365 7.33472C6.87123 7.71501 6.42343 8.2554 6.1561 8.88851C5.88877 9.52161 5.81373 10.2194 5.94036 10.8949C6.06698 11.5703 6.38965 12.1936 6.86814 12.6869L11.6876 17.6123C11.7284 17.6538 11.777 17.6868 11.8306 17.7093C11.8842 17.7319 11.9418 17.7435 12 17.7435C12.0584 17.7435 12.1162 17.7318 12.17 17.7091C12.2238 17.6864 12.2725 17.6532 12.3133 17.6114L16.9639 12.8391C17.491 12.3672 17.8621 11.7462 18.0282 11.0584C18.1942 10.3707 18.1473 9.64872 17.8936 8.98827C17.6399 8.32782 17.1915 7.76008 16.6077 7.36034C16.024 6.9606 15.3325 6.74775 14.625 6.75Z" fill="context-fill" fill-opacity="context-fill-opacity"/>
</svg>
