#filter dumbComments emptyLines substitution
# This Source Code Form is subject to the terms of the Mozilla Public
# License, v. 2.0. If a copy of the MPL was not distributed with this
# file, You can obtain one at http://mozilla.org/MPL/2.0/.
<svg width="24" height="24" viewBox="0 0 24 24" fill="none" xmlns="http://www.w3.org/2000/svg">
<path fill-rule="evenodd" clip-rule="evenodd" d="M9 8.5C9 8.22386 9.22386 8 9.5 8H15.5C15.7761 8 16 8.22386 16 8.5C16 8.77614 15.7761 9 15.5 9H9.5C9.22386 9 9 8.77614 9 8.5Z" fill="context-fill" fill-opacity="context-fill-opacity"/>
<path d="M9 9.5C8.72386 9.5 8.5 9.72386 8.5 10C8.5 10.2761 8.72386 10.5 9 10.5H16C16.2761 10.5 16.5 10.2761 16.5 10C16.5 9.72386 16.2761 9.5 16 9.5H9Z" fill="context-fill" fill-opacity="context-fill-opacity"/>
<path fill-rule="evenodd" clip-rule="evenodd" d="M6.03144 11.3251L6 11.4037V14.5C6 15.8807 7.11929 17 8.5 17H16.5C17.8807 17 19 15.8807 19 14.5V11.4266L18.9821 11.3671C18.9801 11.3597 18.9779 11.3524 18.9756 11.3452L17.6927 7.06898C17.5024 6.4345 16.9184 6 16.256 6H9.17703C8.56368 6 8.01211 6.37343 7.78432 6.94291L6.03997 11.3038C6.03697 11.3108 6.03412 11.3179 6.03144 11.3251ZM8.71279 7.3143C8.78873 7.12448 8.97258 7 9.17703 7H16.256C16.4768 7 16.6714 7.14483 16.7349 7.35633L17.768 11.9946H14.19C13.7672 11.9946 13.4648 12.3302 13.4299 12.6963C13.4008 13.0004 13.3101 13.3496 13.1402 13.6075C12.9842 13.8442 12.7737 13.9946 12.44 13.9946C12.1063 13.9946 11.8958 13.8442 11.7399 13.6075C11.57 13.3496 11.4792 13.0004 11.4502 12.6963C11.4152 12.3302 11.1129 11.9946 10.69 11.9946H7.17854L8.71279 7.3143Z" fill="context-fill" fill-opacity="context-fill-opacity"/>
</svg>
