#filter dumbComments emptyLines substitution
# This Source Code Form is subject to the terms of the Mozilla Public
# License, v. 2.0. If a copy of the MPL was not distributed with this
# file, You can obtain one at http://mozilla.org/MPL/2.0/.
<svg width="24" height="24" viewBox="0 0 24 24" fill="none" xmlns="http://www.w3.org/2000/svg">
<path d="M8.12165 14.4062L7.23707 14.9535C6.90872 15.1566 6.92477 15.6395 7.26589 15.8204L11.9185 18.2878C12.065 18.3655 12.2405 18.3655 12.387 18.2878L17.0396 15.8204C17.3808 15.6395 17.3968 15.1566 17.0684 14.9535L16.1838 14.4061L12.8555 16.1713C12.416 16.4044 11.8895 16.4044 11.4499 16.1713L8.12165 14.4062Z" fill="context-fill" fill-opacity="context-fill-opacity"/>
<path d="M7.26575 9.82038C6.92462 9.63947 6.90857 9.15662 7.23693 8.95346L11.8895 6.0748C12.0507 5.97506 12.2545 5.97507 12.4157 6.0748L17.0683 8.95346C17.3967 9.15662 17.3806 9.63947 17.0395 9.82038L12.3869 12.2878C12.2404 12.3655 12.0649 12.3655 11.9184 12.2878L7.26575 9.82038Z" fill="context-fill" fill-opacity="context-fill-opacity"/>
<path d="M8.12161 11.4062L7.23703 11.9535C6.90867 12.1566 6.92472 12.6395 7.26584 12.8204L11.9185 15.2878C12.065 15.3655 12.2405 15.3655 12.387 15.2878L17.0396 12.8204C17.3807 12.6395 17.3968 12.1566 17.0684 11.9535L16.1838 11.4061L12.8555 13.1712C12.4159 13.4043 11.8894 13.4043 11.4499 13.1712L8.12161 11.4062Z" fill="context-fill" fill-opacity="context-fill-opacity"/>
</svg>
