<svg width="24" height="24" viewBox="0 0 24 24" fill="none" xmlns="http://www.w3.org/2000/svg">
<path fill-rule="evenodd" clip-rule="evenodd" d="M7.5 7C6.39543 7 5.5 7.89543 5.5 9V15C5.5 16.1046 6.39543 17 7.5 17H16.5C17.6046 17 18.5 16.1046 18.5 15V9C18.5 7.89543 17.6046 7 16.5 7H7.5ZM8.32926 8.62372C8.12144 8.44188 7.80556 8.46294 7.62372 8.67075C7.44188 8.87857 7.46294 9.19445 7.67075 9.3763L11.6708 12.8763C11.8593 13.0412 12.1407 13.0412 12.3293 12.8763L16.3293 9.3763C16.5371 9.19445 16.5581 8.87857 16.3763 8.67075C16.1945 8.46294 15.8786 8.44188 15.6708 8.62372L12 11.8356L8.32926 8.62372Z" fill="context-fill" fill-opacity="context-fill-opacity"/>
</svg>
