<svg width="24" height="24" viewBox="0 0 24 24" fill="none" xmlns="http://www.w3.org/2000/svg">
<path d="M16.5 7C17.6046 7 18.5 7.89543 18.5 9V15C18.5 16.1046 17.6046 17 16.5 17H7.5C6.39543 17 5.5 16.1046 5.5 15V9C5.5 7.89543 6.39543 7 7.5 7H16.5ZM16.376 8.6709C16.1941 8.46315 15.8787 8.4422 15.6709 8.62402L12 11.8359L8.3291 8.62402C8.12131 8.4422 7.80587 8.46315 7.62402 8.6709C7.4422 8.87869 7.46315 9.19412 7.6709 9.37598L11.6709 12.876C11.8594 13.0409 12.1406 13.0409 12.3291 12.876L16.3291 9.37598C16.5369 9.19413 16.5578 8.87869 16.376 8.6709Z" fill="context-fill" fill-opacity="context-fill-opacity"/>
</svg>
