#filter dumbComments emptyLines substitution
# This Source Code Form is subject to the terms of the Mozilla Public
# License, v. 2.0. If a copy of the MPL was not distributed with this
# file, You can obtain one at http://mozilla.org/MPL/2.0/.
<svg width="24" height="24" viewBox="0 0 24 24" fill="none" xmlns="http://www.w3.org/2000/svg">
<path d="M17.9984 14.669V5.53883C17.9984 5.36682 17.9174 5.20515 17.7808 5.10382C17.6433 5.00202 17.4672 4.97284 17.3068 5.02626L10.3692 7.29966C10.1508 7.37112 10.0023 7.5784 10.0023 7.81223V14.4569C10.0023 14.8509 9.68804 15.1711 9.30041 15.1711H8.52806C7.13186 15.1711 6 16.028 6 17.0853C6 18.1426 7.13186 19 8.52817 19C9.92438 19 11.0562 18.1426 11.0562 17.0853V17.0845L11.0606 17.0853V9.64029L16.9402 7.71378V12.0806C16.9309 12.4666 16.622 12.7774 16.2401 12.7774H15.4722C14.0759 12.7774 12.9441 13.6344 12.9441 14.6917C12.9441 15.7494 14.0757 16.6059 15.4722 16.6059C16.8685 16.6059 18 15.7494 18 14.6917C17.9998 14.6839 17.9986 14.6765 17.9985 14.669L17.9984 14.669Z" fill="context-fill" fill-opacity="context-fill-opacity"/>
</svg>
