<svg width="24" height="24" viewBox="0 0 24 24" fill="none" xmlns="http://www.w3.org/2000/svg">
<path d="M7.5 7.5C5.015 9.985 5.015 14.015 7.5 16.5C9.985 18.985 14.015 18.985 16.5 16.5C16.915 16.085 16.915 15.415 16.5 15C16.305 14.805 16.055 14.705 15.8 14.69C15.555 14.675 15.305 14.575 15.115 14.385C14.7 13.97 14.7 13.3 15.115 12.885L16 12C17.38 10.62 17.38 8.38 16 7C13.79 4.79 9.985 5.015 7.5 7.5ZM9.25 14.75C8.835 15.165 8.165 15.165 7.75 14.75C7.335 14.335 7.335 13.665 7.75 13.25C8.165 12.835 8.835 12.835 9.25 13.25C9.665 13.665 9.665 14.335 9.25 14.75ZM8.75 11.25C8.335 11.665 7.665 11.665 7.25 11.25C6.835 10.835 6.835 10.165 7.25 9.75C7.665 9.335 8.335 9.335 8.75 9.75C9.165 10.165 9.165 10.835 8.75 11.25ZM11.25 8.75C10.835 9.165 10.165 9.165 9.75 8.75C9.335 8.335 9.335 7.665 9.75 7.25C10.165 6.835 10.835 6.835 11.25 7.25C11.665 7.665 11.665 8.335 11.25 8.75ZM14.75 9.25C14.335 9.665 13.665 9.665 13.25 9.25C12.835 8.835 12.835 8.165 13.25 7.75C13.665 7.335 14.335 7.335 14.75 7.75C15.165 8.165 15.165 8.835 14.75 9.25Z" fill="context-fill" fill-opacity="context-fill-opacity"/>
</svg>
