<svg width="24" height="24" viewBox="0 0 24 24" fill="none" xmlns="http://www.w3.org/2000/svg">
<path d="M9.56759 9.4658C9.67409 9.48937 9.78284 9.50131 9.89192 9.50139C10.1981 9.50143 10.4963 9.4042 10.7436 9.22372C10.9314 9.0832 11.0875 8.90472 11.2017 8.6999C11.316 8.49507 11.3859 8.26849 11.4068 8.03489C11.462 7.59511 11.3558 7.15026 11.1079 6.78286C10.86 6.41545 10.4872 6.15044 10.0588 6.03697C9.85687 5.99077 9.64742 5.98842 9.44455 6.03009C9.24167 6.07175 9.0501 6.15645 8.88276 6.27847C8.69497 6.419 8.53887 6.59747 8.4246 6.8023C8.31033 7.00712 8.24045 7.2337 8.21951 7.4673C8.1642 7.90717 8.27036 8.35216 8.51828 8.71969C8.76619 9.08722 9.13903 9.35233 9.56759 9.4658Z" fill="context-fill" fill-opacity="context-fill-opacity"/>
<path d="M7.98106 11.6755C8.09901 11.4622 8.17327 11.2276 8.19951 10.9853C8.22575 10.743 8.20345 10.4979 8.13389 10.2644C8.03119 9.83298 7.76691 9.45742 7.39553 9.21507C7.02415 8.97273 6.57396 8.88208 6.13773 8.9618C5.94688 9.0112 5.76799 9.09867 5.61181 9.21896C5.45563 9.33926 5.32538 9.48989 5.22889 9.6618C5.1111 9.8749 5.03692 10.1093 5.01068 10.3514C4.98444 10.5935 5.00667 10.8383 5.07606 11.0717C5.17022 11.443 5.38111 11.7742 5.67768 12.0166C5.97425 12.259 6.34082 12.3997 6.72339 12.418C6.8414 12.4182 6.95896 12.4037 7.07339 12.3749C7.26398 12.3254 7.44261 12.238 7.59858 12.1178C7.75455 11.9976 7.88464 11.8471 7.98106 11.6755Z" fill="context-fill" fill-opacity="context-fill-opacity"/>
<path d="M13.2578 9.22431C13.5051 9.40458 13.8033 9.5016 14.1094 9.50139C14.2185 9.50112 14.3273 9.48899 14.4338 9.46523C14.8623 9.35175 15.2352 9.08664 15.4831 8.71911C15.731 8.35158 15.8371 7.90659 15.7818 7.46673C15.7609 7.23312 15.691 7.00654 15.5767 6.80172C15.4625 6.59689 15.3064 6.41842 15.1186 6.27789C14.9512 6.15594 14.7596 6.07128 14.5568 6.02962C14.3539 5.98796 14.1445 5.99027 13.9426 6.03639C13.514 6.14987 13.1412 6.41497 12.8933 6.7825C12.6454 7.15003 12.5392 7.59503 12.5945 8.03489C12.6154 8.2686 12.6852 8.49529 12.7995 8.70022C12.9138 8.90515 13.0699 9.08372 13.2578 9.22431Z" fill="context-fill" fill-opacity="context-fill-opacity"/>
<path d="M18.7727 9.66063C18.6762 9.48872 18.5459 9.33809 18.3898 9.2178C18.2336 9.09751 18.0547 9.01003 17.8638 8.96063C17.4275 8.88003 16.9769 8.97032 16.6053 9.2128C16.2337 9.45528 15.9696 9.83137 15.8677 10.2632C15.7981 10.4968 15.7758 10.7419 15.802 10.9841C15.8283 11.2264 15.9026 11.461 16.0205 11.6743C16.117 11.8462 16.2472 11.9968 16.4034 12.1171C16.5596 12.2374 16.7385 12.3249 16.9293 12.3743C17.0438 12.4031 17.1613 12.4176 17.2793 12.4175C17.6619 12.3992 18.0285 12.2585 18.3252 12.0163C18.6218 11.774 18.8329 11.4429 18.9272 11.0717C18.9965 10.838 19.0186 10.5929 18.992 10.3506C18.9655 10.1083 18.8909 9.87377 18.7727 9.66063Z" fill="context-fill" fill-opacity="context-fill-opacity"/>
<path d="M12.0009 11.6681C10.501 11.6681 7.33419 13.8846 7.33419 16.5014C7.33419 17.1202 7.58002 17.7137 8.01761 18.1513C8.45519 18.5889 9.04868 18.8347 9.66752 18.8347C10.1661 18.8444 10.6584 18.7227 11.0949 18.4818C11.3692 18.3211 11.6832 18.2413 12.0009 18.2514C12.3185 18.2413 12.6326 18.3211 12.9068 18.4818C13.3433 18.7227 13.8356 18.8444 14.3342 18.8347C14.953 18.8347 15.5465 18.5889 15.9841 18.1513C16.4217 17.7137 16.6675 17.1202 16.6675 16.5014C16.6675 13.8846 13.5007 11.6681 12.0009 11.6681Z" fill="context-fill" fill-opacity="context-fill-opacity"/>
</svg>
