<svg width="24" height="24" viewBox="0 0 24 24" fill="none" xmlns="http://www.w3.org/2000/svg">
<path d="M14.5 12C15.8807 12 17 10.8807 17 9.5C17 8.11929 15.8807 7 14.5 7C13.1193 7 12 8.11929 12 9.5C12 10.8807 13.1193 12 14.5 12Z" fill="context-fill" fill-opacity="context-fill-opacity"/>
<path d="M9.23464 16.1128C9.19966 16.2188 9.16839 16.3266 9.14097 16.4363C9.06939 16.7226 9.28595 17 9.58108 17H18.419C18.7142 17 18.9307 16.7226 18.8591 16.4363C18.3542 14.4168 16.5397 13 14.458 13H13.5421C12.6587 13 11.8234 13.2552 11.1158 13.7033C11.094 13.7171 11.0722 13.7311 11.0506 13.7454C10.2129 14.2962 9.56194 15.1209 9.23464 16.1128Z" fill="context-fill" fill-opacity="context-fill-opacity"/>
<path d="M10.7991 9.94361C10.7991 11.0793 9.87838 12 8.74267 12C7.60696 12 6.68628 11.0793 6.68628 9.94361C6.68628 8.8079 7.60696 7.88722 8.74267 7.88722C9.87838 7.88722 10.7991 8.8079 10.7991 9.94361Z" fill="context-fill" fill-opacity="context-fill-opacity"/>
<path d="M8.7081 12.8226C9.23097 12.8226 9.73334 12.9312 10.1908 13.1295C9.23552 13.856 8.51652 14.8915 8.19172 16.1128H4.69659C4.45382 16.1128 4.27569 15.8846 4.33457 15.6491C4.74986 13.9879 6.24244 12.8226 7.95476 12.8226H8.7081Z" fill="context-fill" fill-opacity="context-fill-opacity"/>
</svg>
