<svg width="24" height="24" viewBox="0 0 24 24" fill="none" xmlns="http://www.w3.org/2000/svg">
<path fill-rule="evenodd" clip-rule="evenodd" d="M7.39313 8.8693C7.00893 9.09743 6.49922 8.98436 6.28679 8.59126C6.11992 8.28248 6.19189 7.89584 6.47741 7.69173C9.6339 5.43522 14.3475 5.43609 17.5229 7.69434C17.8072 7.89654 17.878 8.28162 17.7096 8.58715C17.4984 8.97031 16.9995 9.07869 16.6232 8.85554C15.2062 8.0153 13.6032 7.61096 11.9999 7.61096C10.4029 7.61096 8.80594 8.03041 7.39313 8.8693ZM7.35627 10.5745C7.1146 10.136 7.2317 9.58032 7.66255 9.32529C10.3286 7.7472 13.6712 7.7472 16.3373 9.32529C16.7681 9.58032 16.8852 10.136 16.6435 10.5745L12.8757 17.411C12.4955 18.1007 11.5043 18.1007 11.1241 17.411L7.35627 10.5745ZM10.5 10.75C10.5 11.1642 10.1642 11.5 9.74995 11.5C9.33574 11.5 8.99995 11.1642 8.99995 10.75C8.99995 10.3358 9.33574 10 9.74995 10C10.1642 10 10.5 10.3358 10.5 10.75ZM13.75 11.5C14.1642 11.5 14.5 11.1642 14.5 10.75C14.5 10.3358 14.1642 10 13.75 10C13.3357 10 13 10.3358 13 10.75C13 11.1642 13.3357 11.5 13.75 11.5ZM11.75 14.5C12.1642 14.5 12.5 14.1642 12.5 13.75C12.5 13.3358 12.1642 13 11.75 13C11.3357 13 11 13.3358 11 13.75C11 14.1642 11.3357 14.5 11.75 14.5Z" fill="context-fill" fill-opacity="context-fill-opacity"/>
</svg>
