#filter dumbComments emptyLines substitution
# This Source Code Form is subject to the terms of the Mozilla Public
# License, v. 2.0. If a copy of the MPL was not distributed with this
# file, You can obtain one at http://mozilla.org/MPL/2.0/.
<svg width="24" height="24" viewBox="0 0 24 24" fill="none" xmlns="http://www.w3.org/2000/svg">
<path d="M7.66309 9.3252C10.329 7.74741 13.671 7.74738 16.3369 9.3252C16.7677 9.58018 16.8851 10.1358 16.6436 10.5742L12.876 17.4111C12.4958 18.1008 11.5042 18.1008 11.124 17.4111L7.35645 10.5742C7.11491 10.1358 7.23229 9.58019 7.66309 9.3252ZM11.75 13C11.3358 13 11 13.3358 11 13.75C11 14.1642 11.3358 14.5 11.75 14.5C12.1642 14.5 12.5 14.1642 12.5 13.75C12.5 13.3358 12.1642 13 11.75 13ZM9.75 10C9.33579 10 9 10.3358 9 10.75C9 11.1642 9.33579 11.5 9.75 11.5C10.1642 11.5 10.5 11.1642 10.5 10.75C10.5 10.3358 10.1642 10 9.75 10ZM13.75 10C13.3358 10 13 10.3358 13 10.75C13 11.1642 13.3358 11.5 13.75 11.5C14.1642 11.5 14.5 11.1642 14.5 10.75C14.5 10.3358 14.1642 10 13.75 10ZM6.47754 7.69141C9.63392 5.43512 14.3472 5.43636 17.5225 7.69434C17.8067 7.89647 17.8782 8.28143 17.71 8.58691C17.4987 8.97007 16.9994 9.07863 16.623 8.85547C15.2061 8.01531 13.6032 7.61133 12 7.61133C10.4031 7.61133 8.80628 8.03038 7.39355 8.86914C7.00935 9.09727 6.49954 8.98392 6.28711 8.59082C6.1204 8.28208 6.19209 7.89547 6.47754 7.69141Z" fill="context-fill" fill-opacity="context-fill-opacity"/>
</svg>
