<svg width="24" height="24" viewBox="0 0 24 24" fill="none" xmlns="http://www.w3.org/2000/svg">
<path d="M8.63436 8.12156C8.90586 8.17195 9.16681 7.9927 9.2172 7.72119C9.26759 7.44969 9.08834 7.18874 8.81683 7.13835C8.02084 6.99062 7.28668 6.95417 6.6777 7.06327C6.07162 7.17184 5.51916 7.44015 5.2167 7.96402C4.92002 8.47789 4.95665 9.07751 5.1552 9.64609C5.35443 10.2166 5.73653 10.8212 6.24189 11.424C7.25538 12.6329 8.83777 13.9209 10.7438 15.0213L10.769 15.0359L10.7957 15.0474C12.8175 15.9196 14.1893 16.4064 15.2164 16.5517C15.7398 16.6257 16.1928 16.6143 16.6083 16.5103C17.026 16.4059 17.3764 16.2151 17.7024 15.9704C18.637 15.269 18.6829 13.9846 18.1563 13.0912C18.0161 12.8533 17.7095 12.7741 17.4716 12.9144C17.2338 13.0546 17.1546 13.3611 17.2948 13.599C17.6323 14.1716 17.5284 14.8506 17.1021 15.1707C16.8554 15.3558 16.6244 15.4755 16.3656 15.5402C16.1246 15.6005 15.8345 15.6194 15.4532 15.5741C16.1907 14.703 16.6355 13.576 16.6355 12.3451C16.6355 9.58368 14.3969 7.34511 11.6355 7.34511C9.45947 7.34511 7.60812 8.73517 6.92096 10.6757C6.5082 10.1668 6.23494 9.70486 6.09929 9.31641C5.95363 8.8993 5.98614 8.63132 6.08273 8.46402C6.18115 8.29355 6.40381 8.12825 6.85404 8.0476C7.30137 7.96746 7.9047 7.98614 8.63436 8.12156Z" fill="context-fill" fill-opacity="context-fill-opacity"/>
<path d="M11.6355 17.3451C8.95554 17.3451 6.76804 15.2367 6.6413 12.5881C7.6542 13.5837 8.97957 14.5802 10.4937 15.4544L10.5442 15.4835L10.5977 15.5066C11.9557 16.0924 13.0461 16.5163 13.9495 16.7785C13.2576 17.1404 12.4705 17.3451 11.6355 17.3451Z" fill="context-fill" fill-opacity="context-fill-opacity"/>
</svg>
