#filter dumbComments emptyLines substitution
# This Source Code Form is subject to the terms of the Mozilla Public
# License, v. 2.0. If a copy of the MPL was not distributed with this
# file, You can obtain one at http://mozilla.org/MPL/2.0/.
<svg width="24" height="24" viewBox="0 0 24 24" fill="none" xmlns="http://www.w3.org/2000/svg">
<path d="M12 18.1878H10C8.89553 18.1878 8.00016 17.2922 8 16.1878V14.1878H12V18.1878ZM17 16.1878C16.9998 17.2922 16.1045 18.1878 15 18.1878H13V14.1878H17V16.1878ZM13.1514 6.24054C13.7921 5.92015 14.5829 5.92015 15.2236 6.24054C15.7174 6.48748 15.9152 6.89816 15.9805 7.28546C16.011 7.4672 16.0135 7.64626 16.0107 7.7962C16.0075 7.9754 16 8.05798 16 8.1878C16 8.38308 16.0058 8.78939 15.7988 9.1878H17C18.1046 9.1878 19 10.0832 19 11.1878C18.9998 12.2233 18.2127 13.0748 17.2041 13.1771C17.185 13.1781 17.1668 13.1822 17.1494 13.1878H13V9.1878H13.5C14.4306 9.1878 14.746 8.95438 14.8594 8.8128C14.9868 8.65354 15 8.45146 15 8.1878C15 8.06786 15.0089 7.87694 15.0107 7.77765C15.0131 7.64919 15.0094 7.54248 14.9941 7.45147C14.9675 7.29326 14.9146 7.20421 14.7764 7.13507C14.4171 6.95545 13.9579 6.95545 13.5986 7.13507C13.2645 7.30216 13 7.63118 13 8.1878V9.1878H12V8.1878C12 7.63118 11.7355 7.30216 11.4014 7.13507C11.0421 6.95545 10.5829 6.95545 10.2236 7.13507C10.0854 7.20421 10.0325 7.29326 10.0059 7.45147C9.99057 7.54248 9.98693 7.64919 9.98926 7.77765C9.99108 7.87694 10 8.06786 10 8.1878C10 8.45146 10.0132 8.65354 10.1406 8.8128C10.254 8.95438 10.5694 9.1878 11.5 9.1878H12V13.1878H7.85059C7.83318 13.1822 7.81498 13.1781 7.7959 13.1771C6.78732 13.0748 6.00015 12.2233 6 11.1878C6 10.0832 6.89543 9.1878 8 9.1878H9.20117C8.99424 8.78939 8.99999 8.38308 9 8.1878C9 8.05798 8.99253 7.9754 8.98926 7.7962C8.98653 7.64626 8.98897 7.4672 9.01953 7.28546C9.0848 6.89816 9.28259 6.48748 9.77637 6.24054C10.4171 5.92015 11.2079 5.92015 11.8486 6.24054C12.0958 6.36412 12.3182 6.53401 12.5 6.74737C12.6818 6.53401 12.9042 6.36412 13.1514 6.24054Z" fill="context-fill" fill-opacity="context-fill-opacity"/>
</svg>
