<svg width="24" height="24" viewBox="0 0 24 24" fill="none" xmlns="http://www.w3.org/2000/svg">
<path fill-rule="evenodd" clip-rule="evenodd" d="M13.5986 7.13471C13.2645 7.30179 13 7.63081 13 8.1875V9.1875H12V8.1875C12 7.63081 11.7355 7.30179 11.4014 7.13471C11.0422 6.9551 10.5828 6.9551 10.2236 7.13471C10.0852 7.20392 10.0326 7.29307 10.0059 7.45157C9.99056 7.5427 9.98676 7.64887 9.9891 7.77756C9.9898 7.81561 9.99156 7.86712 9.99347 7.92294L9.99347 7.92297C9.99655 8.01267 10 8.1135 10 8.1875C10 8.45131 10.013 8.65333 10.1404 8.81265C10.2535 8.95398 10.568 9.18673 11.4954 9.1875H12V13.1875H7.66636C7.61551 13.1609 7.56117 13.1401 7.50506 13.1258C6.63988 12.9055 6 12.1212 6 11.1875C6 10.0829 6.89543 9.1875 8 9.1875H9.19731C8.99899 8.80459 8.99964 8.41326 8.99997 8.21059L9 8.1875C9 8.11744 8.99783 8.06123 8.99532 7.99616C8.99317 7.94055 8.99077 7.87848 8.98927 7.79575C8.98654 7.64574 8.98916 7.46745 9.01976 7.2856C9.08497 6.89816 9.28236 6.4873 9.77639 6.24029C10.4172 5.9199 11.2078 5.91991 11.8486 6.24029C12.0958 6.36388 12.3181 6.53406 12.5 6.74747C12.6819 6.53406 12.9042 6.36388 13.1514 6.24029C13.7922 5.91991 14.5828 5.9199 15.2236 6.24029C15.7176 6.4873 15.915 6.89816 15.9802 7.2856C16.0108 7.46745 16.0135 7.64574 16.0107 7.79575C16.0092 7.87846 16.0068 7.94053 16.0047 7.99614V7.99615V7.99616V7.9962V7.99622C16.0022 8.06126 16 8.11746 16 8.1875L16 8.21059C16.0004 8.41326 16.001 8.80459 15.8027 9.1875H17C18.1046 9.1875 19 10.0829 19 11.1875C19 12.1212 18.3601 12.9055 17.4949 13.1258C17.4388 13.1401 17.3845 13.1609 17.3336 13.1875H13V9.1875H13.5046C14.432 9.18673 14.7465 8.95398 14.8596 8.81265C14.987 8.65333 15 8.45131 15 8.1875C15 8.11352 15.0035 8.01273 15.0065 7.92305L15.0065 7.923V7.92297C15.0084 7.86714 15.0102 7.81562 15.0109 7.77756C15.0132 7.64887 15.0094 7.5427 14.9941 7.45157C14.9674 7.29307 14.9148 7.20392 14.7764 7.13471C14.4172 6.9551 13.9578 6.9551 13.5986 7.13471ZM8 14.1875L8 16.1875C8 17.2921 8.89543 18.1875 10 18.1875H12V14.1875H8ZM13 18.1875H15C16.1046 18.1875 17 17.2921 17 16.1875V14.1875H13V18.1875Z" fill="context-fill" fill-opacity="context-fill-opacity"/>
</svg>
