<svg width="24" height="24" viewBox="0 0 24 24" fill="none" xmlns="http://www.w3.org/2000/svg">
<path d="M6.0294 13.8704L10.1257 6.13303C10.2172 5.96013 10.4629 5.95462 10.5621 6.12325L15.1135 13.8606C15.2115 14.0273 15.0914 14.2374 14.898 14.2374H6.25034C6.06195 14.2374 5.94125 14.0369 6.0294 13.8704Z" fill="context-fill" fill-opacity="context-fill-opacity"/>
<path d="M10.0912 15.2374C10.709 16.9852 12.3759 18.2374 14.3351 18.2374C16.8203 18.2374 18.8351 16.2227 18.8351 13.7374C18.8351 11.2521 16.8203 9.2374 14.3351 9.2374C14.0813 9.2374 13.8324 9.25839 13.5901 9.29877L15.9753 13.3536C16.4655 14.1869 15.8647 15.2374 14.8979 15.2374H10.0912Z" fill="context-fill" fill-opacity="context-fill-opacity"/>
</svg>
