<svg width="24" height="24" viewBox="0 0 24 24" fill="none" xmlns="http://www.w3.org/2000/svg">
<path fill-rule="evenodd" clip-rule="evenodd" d="M15.7909 7.41919C15.3465 6.9748 14.8272 6.62495 14.2509 6.38057C13.6524 6.12787 13.0179 6.0001 12.3638 6.0001L10.8461 6C10.1921 6 9.55752 6.12776 8.95905 6.38047C8.38138 6.62484 7.86346 6.97334 7.4191 7.4191C6.9747 7.86349 6.62486 8.38274 6.38047 8.95905C6.12777 9.55755 6 10.1921 6 10.8461C6 10.8573 6 10.8683 6.00136 10.8795L6.28738 14.6135C6.29706 15.2897 6.84975 15.8354 7.52737 15.8354H7.93834C8.14804 15.8354 8.31881 16.0049 8.31881 16.2159V17.7586C8.31881 18.4432 8.87419 18.9986 9.5588 18.9986H9.66157C9.95872 18.9986 10.2003 18.757 10.2003 18.4598V18.139C10.2003 17.9043 10.3836 17.7058 10.6182 17.7003C10.8613 17.6933 11.0612 17.8891 11.0612 18.1307V18.4598C11.0612 18.757 11.3027 18.9986 11.5999 18.9986H11.6111C11.9082 18.9986 12.1498 18.757 12.1498 18.4598V18.1405C12.1498 17.9058 12.3331 17.7072 12.5677 17.7017C12.8108 17.6947 13.0107 17.8906 13.0107 18.1321V18.4613C13.0107 18.7584 13.2522 19 13.5494 19H13.6522C14.3368 19 14.8922 18.4446 14.8922 17.76L14.8925 16.2158C14.8925 16.0061 15.0619 15.8353 15.2729 15.8353H15.6839C16.3615 15.8353 16.9142 15.2883 16.9239 14.6134L17.2099 10.8793C17.2113 10.8682 17.2113 10.8572 17.2113 10.846C17.2113 10.192 17.0835 9.5574 16.8308 8.95892C16.5852 8.38281 16.2352 7.8648 15.7909 7.41914L15.7909 7.41919ZM9.49642 14.2259C8.66189 14.2259 7.98707 13.5497 7.98707 12.7166C7.98707 11.882 8.66333 11.2072 9.49642 11.2072C10.331 11.2072 11.0058 11.8835 11.0058 12.7166C11.0071 13.5497 10.331 14.2259 9.49642 14.2259ZM11.757 16.224H11.4515C11.1599 16.224 10.942 15.956 11.0016 15.67L11.1502 14.9577C11.1947 14.7438 11.3821 14.5911 11.6001 14.5911H11.6071C11.8251 14.5911 12.0126 14.7438 12.057 14.9577L12.2056 15.67C12.2666 15.956 12.0486 16.224 11.757 16.224ZM13.7121 14.2259C12.8776 14.2259 12.2028 13.5497 12.2028 12.7166C12.2028 11.882 12.879 11.2072 13.7121 11.2072C14.5453 11.2072 15.2215 11.8835 15.2215 12.7166C15.2215 13.5497 14.5452 14.2259 13.7121 14.2259Z" fill="context-fill" fill-opacity="context-fill-opacity"/>
</svg>
