<svg width="24" height="24" viewBox="0 0 24 24" fill="none" xmlns="http://www.w3.org/2000/svg">
<path d="M8 9.5C8 8.67157 8.67157 8 9.5 8H16.5C17.3284 8 18 8.67157 18 9.5V16.5C18 17.3284 17.3284 18 16.5 18H9.5C8.67157 18 8 17.3284 8 16.5V9.5Z" fill="context-fill" fill-opacity="context-fill-opacity"/>
<path d="M7.5 6C6.67157 6 6 6.67157 6 7.5V14.5C6 15.1531 6.4174 15.7087 7 15.9146V9.5C7 8.11929 8.11929 7 9.5 7H15.9146C15.7087 6.4174 15.1531 6 14.5 6H7.5Z" fill="context-fill" fill-opacity="context-fill-opacity"/>
</svg>
