<svg width="24" height="24" viewBox="0 0 24 24" fill="none" xmlns="http://www.w3.org/2000/svg">
<path d="M14.1053 10.25C13.8926 10.25 13.7031 10.1153 13.6332 9.91441L12.4722 6.58014C12.3164 6.1327 11.6836 6.13269 11.5278 6.58014L10.3668 9.91441C10.2969 10.1153 10.1074 10.25 9.89465 10.25H6.44986C5.97457 10.25 5.7674 10.8507 6.14165 11.1437L9.00336 13.3839C9.16873 13.5134 9.23558 13.7324 9.17069 13.9321L8.07245 17.3125C7.9228 17.7732 8.45003 18.1562 8.84188 17.8715L11.7061 15.7905C11.8814 15.6632 12.1187 15.6632 12.2939 15.7905L15.1581 17.8715C15.55 18.1562 16.0772 17.7732 15.9275 17.3125L14.8293 13.9321C14.7644 13.7324 14.8313 13.5134 14.9966 13.3839L17.8583 11.1437C18.2326 10.8507 18.0254 10.25 17.5501 10.25H14.1053Z" fill="context-fill" fill-opacity="context-fill-opacity"/>
</svg>
