<svg width="24" height="24" viewBox="0 0 24 24" fill="none" xmlns="http://www.w3.org/2000/svg">
<path d="M12.5 5.75C12.5 5.47386 12.2761 5.25 12 5.25C11.7239 5.25 11.5 5.47386 11.5 5.75V7.68023C11.5 7.94603 11.7342 8.14943 12 8.14943C12.2658 8.14943 12.5 7.94602 12.5 7.6802V5.75Z" fill="context-fill" fill-opacity="context-fill-opacity"/>
<path d="M12.5 16.3198C12.5 16.054 12.2658 15.8506 12 15.8506C11.7342 15.8506 11.5 16.054 11.5 16.3198V18.25C11.5 18.5261 11.7239 18.75 12 18.75C12.2761 18.75 12.5 18.5261 12.5 18.25V16.3198Z" fill="context-fill" fill-opacity="context-fill-opacity"/>
<path d="M18.25 12.5C18.5261 12.5 18.75 12.2761 18.75 12C18.75 11.7239 18.5261 11.5 18.25 11.5H16.3198C16.054 11.5 15.8506 11.7342 15.8506 12C15.8506 12.2658 16.054 12.5 16.3198 12.5H18.25Z" fill="context-fill" fill-opacity="context-fill-opacity"/>
<path d="M7.6802 12.5C7.94602 12.5 8.14943 12.2658 8.14943 12C8.14943 11.7342 7.94603 11.5 7.68023 11.5H5.75C5.47386 11.5 5.25 11.7239 5.25 12C5.25 12.2761 5.47386 12.5 5.75 12.5H7.6802Z" fill="context-fill" fill-opacity="context-fill-opacity"/>
<path d="M16.773 7.93413C16.9682 7.73887 16.9682 7.42229 16.773 7.22703C16.5777 7.03177 16.2611 7.03177 16.0659 7.22703L14.701 8.59191C14.5131 8.77986 14.5348 9.08927 14.7228 9.27722C14.9107 9.46519 15.2202 9.48696 15.4081 9.29899L16.773 7.93413Z" fill="context-fill" fill-opacity="context-fill-opacity"/>
<path d="M9.29901 15.4081C9.48697 15.2201 9.4652 14.9107 9.27724 14.7228C9.08929 14.5348 8.77988 14.513 8.59192 14.701L7.22705 16.0659C7.03178 16.2611 7.03178 16.5777 7.22705 16.773C7.42231 16.9682 7.73889 16.9682 7.93415 16.773L9.29901 15.4081Z" fill="context-fill" fill-opacity="context-fill-opacity"/>
<path d="M16.0658 16.773C16.2611 16.9682 16.5776 16.9682 16.7729 16.773C16.9682 16.5777 16.9682 16.2611 16.7729 16.0659L15.408 14.701C15.2201 14.513 14.9107 14.5348 14.7227 14.7228C14.5348 14.9107 14.513 15.2202 14.7009 15.4081L16.0658 16.773Z" fill="context-fill" fill-opacity="context-fill-opacity"/>
<path d="M8.59183 9.299C8.77979 9.48696 9.08922 9.46519 9.27719 9.27723C9.46514 9.08927 9.48691 8.77986 9.29895 8.59191L7.93408 7.22703C7.73881 7.03177 7.42223 7.03177 7.22697 7.22703C7.03171 7.42229 7.03171 7.73888 7.22697 7.93414L8.59183 9.299Z" fill="context-fill" fill-opacity="context-fill-opacity"/>
<path d="M15 12.0956C15 13.7524 13.6569 15.0956 12 15.0956C10.3431 15.0956 9 13.7524 9 12.0956C9 10.4387 10.3431 9.09555 12 9.09555C13.6569 9.09555 15 10.4387 15 12.0956Z" fill="context-fill" fill-opacity="context-fill-opacity"/>
</svg>
