#filter dumbComments emptyLines substitution
# This Source Code Form is subject to the terms of the Mozilla Public
# License, v. 2.0. If a copy of the MPL was not distributed with this
# file, You can obtain one at http://mozilla.org/MPL/2.0/.
<svg width="24" height="24" viewBox="0 0 24 24" fill="none" xmlns="http://www.w3.org/2000/svg">
<path fill="context-fill" fill-opacity="context-fill-opacity" d="m9.874 9.343.056.048 4.988 4.989a.588.588 0 0 1-.145.937l-.068.03-6.106 2.25c-1.147.422-2.264-.656-1.916-1.802l.03-.086 2.25-6.105a.588.588 0 0 1 .85-.303Zm5.309 2.553c.536.028 1.27.141 1.908.525a.588.588 0 0 1-.544 1.04l-.06-.032c-.402-.24-.914-.336-1.366-.359a4 4 0 0 0-.558.002l-.186.02a.588.588 0 0 1-.165-1.165 5 5 0 0 1 .97-.031m1.192-1.638a.588.588 0 0 1 .067 1.172l-.067.003h-.417a.588.588 0 0 1-.068-1.171l.068-.004zm-1.87-.451a.59.59 0 0 1 .047.776l-.048.055-.624.624a.588.588 0 0 1-.88-.776l.049-.056.623-.623a.59.59 0 0 1 .832 0m-1.521-3.096c.263.792.122 1.658-.042 2.264a6 6 0 0 1-.406 1.095.588.588 0 0 1-1.052-.525 4.7 4.7 0 0 0 .323-.879c.133-.49.2-1.02.098-1.455l-.037-.127a.588.588 0 1 1 1.116-.373m3.183 1.434a.59.59 0 0 1 0 .831l-.415.416a.588.588 0 1 1-.832-.831l.415-.416a.59.59 0 0 1 .831 0"/>
</svg>
