#filter dumbComments emptyLines substitution
# This Source Code Form is subject to the terms of the Mozilla Public
# License, v. 2.0. If a copy of the MPL was not distributed with this
# file, You can obtain one at http://mozilla.org/MPL/2.0/.
<svg width="24" height="24" viewBox="0 0 24 24" fill="none" xmlns="http://www.w3.org/2000/svg">
<path fill="context-fill" fill-opacity="context-fill-opacity" d="m8.144 7.795.088.077L16.1 15.74a.927.927 0 0 1-.228 1.479l-.108.046-9.63 3.549c-1.81.667-3.572-1.034-3.022-2.842l.046-.135 3.548-9.63a.927.927 0 0 1 1.341-.478zm8.374 4.028c.845.044 2.003.222 3.01.827a.927.927 0 0 1-.858 1.641l-.096-.05c-.633-.38-1.441-.53-2.153-.566a7 7 0 0 0-.881.003l-.293.03a.927.927 0 0 1-.26-1.837 8 8 0 0 1 1.53-.049m1.879-2.583a.927.927 0 0 1 .107 1.848l-.107.006h-.657a.927.927 0 0 1-.107-1.848l.107-.006zm-2.95-.712a.93.93 0 0 1 .076 1.224l-.077.088-.984.983a.927.927 0 0 1-1.388-1.224l.077-.087.983-.983a.927.927 0 0 1 1.312 0m-2.399-4.883c.416 1.249.193 2.615-.066 3.57a9.3 9.3 0 0 1-.64 1.728.927.927 0 0 1-1.66-.828 7.4 7.4 0 0 0 .51-1.387c.21-.772.316-1.61.154-2.295l-.057-.2a.927.927 0 1 1 1.76-.588m5.02 2.261a.927.927 0 0 1 0 1.311l-.655.656A.927.927 0 1 1 16.1 6.562l.655-.656a.927.927 0 0 1 1.311 0"/>
</svg>
