<svg width="24" height="24" viewBox="0 0 24 24" fill="none" xmlns="http://www.w3.org/2000/svg">
<path fill-rule="evenodd" clip-rule="evenodd" d="M7.5 6C6.39543 6 5.5 6.89543 5.5 8V16C5.5 17.1046 6.39543 18 7.5 18H16.5C17.6046 18 18.5 17.1046 18.5 16V8C18.5 6.89543 17.6046 6 16.5 6H7.5ZM8.79289 10L7.14645 8.35355C6.95118 8.15829 6.95118 7.84171 7.14645 7.64645C7.34171 7.45118 7.65829 7.45118 7.85355 7.64645L9.85355 9.64645C10.0488 9.84171 10.0488 10.1583 9.85355 10.3536L7.85355 12.3536C7.65829 12.5488 7.34171 12.5488 7.14645 12.3536C6.95118 12.1583 6.95118 11.8417 7.14645 11.6464L8.79289 10ZM10 11.5C10 11.2239 10.2239 11 10.5 11H12C12.2761 11 12.5 11.2239 12.5 11.5C12.5 11.7761 12.2761 12 12 12H10.5C10.2239 12 10 11.7761 10 11.5Z" fill="context-fill" fill-opacity="context-fill-opacity"/>
</svg>
