<svg width="24" height="24" viewBox="0 0 24 24" fill="none" xmlns="http://www.w3.org/2000/svg">
<path fill-rule="evenodd" clip-rule="evenodd" d="M15 12.7718H9.39231V10.7718H15V12.7718Z" fill="context-fill" fill-opacity="context-fill-opacity"/>
<path d="M16 15.6641C16.5523 15.6641 17 15.2164 17 14.6641V14.2394C17 14.0072 17.3796 13.832 17.6118 13.832C18.0429 13.832 18.3923 13.4826 18.3923 13.0515V10.6126C18.3923 10.1815 18.0429 9.83204 17.6118 9.83204C17.3796 9.83204 17 9.65686 17 9.42471V9C17 8.44772 16.5523 8 16 8C15.4477 8 15 8.44772 15 9V14.6641C15 15.2164 15.4477 15.6641 16 15.6641Z" fill="context-fill" fill-opacity="context-fill-opacity"/>
<path d="M8.39231 8C7.84003 8 7.39231 8.44772 7.39231 9V9.42471C7.39231 9.65686 7.01273 9.83204 6.78058 9.83204C6.34948 9.83204 6 10.1815 6 10.6126L6 13.0515C6 13.4826 6.34948 13.832 6.78058 13.832C7.01273 13.832 7.39231 14.0072 7.39231 14.2394V14.6641C7.39231 15.2164 7.84003 15.6641 8.39231 15.6641C8.9446 15.6641 9.39231 15.2164 9.39231 14.6641V9C9.39231 8.44772 8.9446 8 8.39231 8Z" fill="context-fill" fill-opacity="context-fill-opacity"/>
</svg>
