<!--
   - This Source Code Form is subject to the terms of the Mozilla Public
   - License, v. 2.0. If a copy of the MPL was not distributed with this
   - file, You can obtain one at http://mozilla.org/MPL/2.0/.
   -->
<svg width="32" height="32" viewBox="0 0 32 32" fill="none" xmlns="http://www.w3.org/2000/svg">
<g clip-path="url(#clip0_187_41)">
<path d="M16 0C7.16296 0 0 7.16296 0 16C0 20.4178 1.79111 24.4178 4.68593 27.3141L1.63852 30.3615C1.03407 30.9659 1.46222 32 2.31704 32H16C24.837 32 32 24.837 32 16C32 7.16296 24.837 0 16 0Z" fill="#FF4500"/>
<g clip-path="url(#clip1_187_41)">
<path d="M24.7645 19.5839C26.828 19.5839 28.5007 17.9111 28.5007 15.8476C28.5007 13.7841 26.828 12.1113 24.7645 12.1113C22.7011 12.1113 21.0283 13.7841 21.0283 15.8476C21.0283 17.9111 22.7011 19.5839 24.7645 19.5839Z" fill="url(#paint0_radial_187_41)"/>
<path d="M6.62488 19.5839C8.68833 19.5839 10.3611 17.9111 10.3611 15.8476C10.3611 13.7841 8.68833 12.1113 6.62488 12.1113C4.56143 12.1113 2.88867 13.7841 2.88867 15.8476C2.88867 17.9111 4.56143 19.5839 6.62488 19.5839Z" fill="url(#paint1_radial_187_41)"/>
<path d="M15.704 27.0576C21.5949 27.0576 26.3704 23.4759 26.3704 19.0576C26.3704 14.6393 21.5949 11.0576 15.704 11.0576C9.81312 11.0576 5.0376 14.6393 5.0376 19.0576C5.0376 23.4759 9.81312 27.0576 15.704 27.0576Z" fill="url(#paint2_radial_187_41)"/>
<path d="M12.5499 18.2797C12.4877 19.635 11.5881 20.1268 10.5404 20.1268C9.49276 20.1268 8.69456 19.4329 8.75737 18.0776C8.81959 16.7224 9.71913 15.8252 10.7668 15.8252C11.8145 15.8252 12.6127 16.9239 12.5499 18.2797Z" fill="#842123"/>
<path d="M22.6499 18.0776C22.7121 19.4329 21.9139 20.1268 20.8668 20.1268C19.8198 20.1268 18.9202 19.635 18.8574 18.2797C18.7952 16.9245 19.5934 15.8252 20.6405 15.8252C21.6876 15.8252 22.5871 16.7218 22.6499 18.0776Z" fill="#842123"/>
<path d="M12.5507 18.3984C12.4921 19.6671 11.6506 20.127 10.6705 20.127C9.69034 20.127 8.9431 19.4378 9.00177 18.1697C9.06043 16.9009 9.90189 16.0713 10.882 16.0713C11.8621 16.0713 12.6094 17.1297 12.5507 18.3984Z" fill="url(#paint3_radial_187_41)"/>
<path d="M18.8567 18.3984C18.9154 19.6671 19.7569 20.127 20.737 20.127C21.7171 20.127 22.4644 19.4378 22.4057 18.1697C22.347 16.9009 21.5056 16.0713 20.5254 16.0713C19.5453 16.0713 18.7981 17.1297 18.8567 18.3984Z" fill="url(#paint4_radial_187_41)"/>
<path d="M11.4924 17.6926C11.7215 17.6926 11.9072 17.4899 11.9072 17.2399C11.9072 16.9898 11.7215 16.7871 11.4924 16.7871C11.2634 16.7871 11.0776 16.9898 11.0776 17.2399C11.0776 17.4899 11.2634 17.6926 11.4924 17.6926Z" fill="#FFC49C"/>
<path d="M21.3557 17.6926C21.5848 17.6926 21.7705 17.4899 21.7705 17.2399C21.7705 16.9898 21.5848 16.7871 21.3557 16.7871C21.1266 16.7871 20.9409 16.9898 20.9409 17.2399C20.9409 17.4899 21.1266 17.6926 21.3557 17.6926Z" fill="#FFC49C"/>
<path d="M15.7038 21.0312C14.3812 21.0312 13.1136 21.0953 11.9415 21.2114C11.7412 21.2315 11.6144 21.4354 11.692 21.6179C12.3486 23.1569 13.8976 24.2378 15.7038 24.2378C17.51 24.2378 19.059 23.1569 19.7156 21.6179C19.7932 21.4354 19.6664 21.2315 19.4661 21.2114C18.294 21.0947 17.0264 21.0312 15.7038 21.0312Z" fill="#BBCFDA"/>
<path d="M15.7036 21.3252C14.3851 21.3252 13.1217 21.3898 11.9531 21.5083C11.7534 21.5285 11.6266 21.7359 11.7043 21.9213C12.3591 23.4846 13.9027 24.5827 15.7036 24.5827C17.5044 24.5827 19.0481 23.4846 19.7029 21.9213C19.7805 21.7365 19.6537 21.529 19.454 21.5083C18.2854 21.3898 17.0221 21.3252 15.7036 21.3252Z" fill="white"/>
<path d="M15.7039 21.1719C14.4062 21.1719 13.1624 21.2359 12.0122 21.352C11.8154 21.3722 11.691 21.576 11.7674 21.7585C12.4116 23.2975 13.9315 24.3784 15.7045 24.3784C17.4775 24.3784 18.9969 23.2975 19.6416 21.7585C19.7181 21.576 19.5936 21.3722 19.3969 21.352C18.2467 21.2353 17.0029 21.1719 15.7045 21.1719H15.7039Z" fill="url(#paint5_radial_187_41)"/>
<path d="M21.5456 9.96972C23.0078 9.96972 24.1932 8.78431 24.1932 7.32202C24.1932 5.85973 23.0078 4.67432 21.5456 4.67432C20.0833 4.67432 18.8979 5.85973 18.8979 7.32202C18.8979 8.78431 20.0833 9.96972 21.5456 9.96972Z" fill="url(#paint6_radial_187_41)"/>
<path d="M15.666 11.3947C15.349 11.3947 15.0918 11.2619 15.0918 11.0575C15.0918 8.68534 17.0212 6.75586 19.3933 6.75586C19.7104 6.75586 19.9675 7.01304 19.9675 7.33008C19.9675 7.64712 19.7104 7.9043 19.3933 7.9043C17.6547 7.9043 16.2396 9.31882 16.2396 11.0581C16.2396 11.2625 15.9824 11.3953 15.6654 11.3953L15.666 11.3947Z" fill="url(#paint7_radial_187_41)"/>
<path d="M11.8536 19.0256C11.8536 19.5163 11.3315 19.7367 10.6868 19.7367C10.0421 19.7367 9.52002 19.5163 9.52002 19.0256C9.52002 18.5349 10.0421 18.1367 10.6868 18.1367C11.3315 18.1367 11.8536 18.5349 11.8536 19.0256Z" fill="#FF6101"/>
<path d="M21.8868 19.0256C21.8868 19.5163 21.3647 19.7367 20.72 19.7367C20.0753 19.7367 19.5532 19.5163 19.5532 19.0256C19.5532 18.5349 20.0753 18.1367 20.72 18.1367C21.3647 18.1367 21.8868 18.5349 21.8868 19.0256Z" fill="#FF6101"/>
</g>
</g>
<defs>
<radialGradient id="paint0_radial_187_41" cx="0" cy="0" r="1" gradientUnits="userSpaceOnUse" gradientTransform="translate(24.8433 13.6232) scale(7.55242 6.57076)">
<stop stop-color="#FEFFFF"/>
<stop offset="0.4" stop-color="#FEFFFF"/>
<stop offset="0.51" stop-color="#F9FCFC"/>
<stop offset="0.62" stop-color="#EDF3F5"/>
<stop offset="0.7" stop-color="#DEE9EC"/>
<stop offset="0.72" stop-color="#D8E4E8"/>
<stop offset="0.76" stop-color="#CCD8DF"/>
<stop offset="0.8" stop-color="#C8D5DD"/>
<stop offset="0.83" stop-color="#CCD6DE"/>
<stop offset="0.85" stop-color="#D8DBE2"/>
<stop offset="0.88" stop-color="#EDE3E9"/>
<stop offset="0.9" stop-color="#FFEBEF"/>
</radialGradient>
<radialGradient id="paint1_radial_187_41" cx="0" cy="0" r="1" gradientUnits="userSpaceOnUse" gradientTransform="translate(6.70369 5.8337) scale(7.55242 6.57076)">
<stop stop-color="#FEFFFF"/>
<stop offset="0.4" stop-color="#FEFFFF"/>
<stop offset="0.51" stop-color="#F9FCFC"/>
<stop offset="0.62" stop-color="#EDF3F5"/>
<stop offset="0.7" stop-color="#DEE9EC"/>
<stop offset="0.72" stop-color="#D8E4E8"/>
<stop offset="0.76" stop-color="#CCD8DF"/>
<stop offset="0.8" stop-color="#C8D5DD"/>
<stop offset="0.83" stop-color="#CCD6DE"/>
<stop offset="0.85" stop-color="#D8DBE2"/>
<stop offset="0.88" stop-color="#EDE3E9"/>
<stop offset="0.9" stop-color="#FFEBEF"/>
</radialGradient>
<radialGradient id="paint2_radial_187_41" cx="0" cy="0" r="1" gradientUnits="userSpaceOnUse" gradientTransform="translate(15.9339 12.6686) scale(22.7811 15.9471)">
<stop stop-color="#FEFFFF"/>
<stop offset="0.4" stop-color="#FEFFFF"/>
<stop offset="0.51" stop-color="#F9FCFC"/>
<stop offset="0.62" stop-color="#EDF3F5"/>
<stop offset="0.7" stop-color="#DEE9EC"/>
<stop offset="0.72" stop-color="#D8E4E8"/>
<stop offset="0.76" stop-color="#CCD8DF"/>
<stop offset="0.8" stop-color="#C8D5DD"/>
<stop offset="0.83" stop-color="#CCD6DE"/>
<stop offset="0.85" stop-color="#D8DBE2"/>
<stop offset="0.88" stop-color="#EDE3E9"/>
<stop offset="0.9" stop-color="#FFEBEF"/>
</radialGradient>
<radialGradient id="paint3_radial_187_41" cx="0" cy="0" r="1" gradientUnits="userSpaceOnUse" gradientTransform="translate(10.8708 18.9596) scale(1.90336 2.77898)">
<stop stop-color="#FF6600"/>
<stop offset="0.5" stop-color="#FF4500"/>
<stop offset="0.7" stop-color="#FC4301"/>
<stop offset="0.82" stop-color="#F43F07"/>
<stop offset="0.92" stop-color="#E53812"/>
<stop offset="1" stop-color="#D4301F"/>
</radialGradient>
<radialGradient id="paint4_radial_187_41" cx="0" cy="0" r="1" gradientUnits="userSpaceOnUse" gradientTransform="translate(20.5367 18.9596) rotate(180) scale(1.90336 2.77898)">
<stop stop-color="#FF6600"/>
<stop offset="0.5" stop-color="#FF4500"/>
<stop offset="0.7" stop-color="#FC4301"/>
<stop offset="0.82" stop-color="#F43F07"/>
<stop offset="0.92" stop-color="#E53812"/>
<stop offset="1" stop-color="#D4301F"/>
</radialGradient>
<radialGradient id="paint5_radial_187_41" cx="0" cy="0" r="1" gradientUnits="userSpaceOnUse" gradientTransform="translate(15.6844 24.8112) scale(6.71155 4.42973)">
<stop stop-color="#172E35"/>
<stop offset="0.29" stop-color="#0E1C21"/>
<stop offset="0.73" stop-color="#030708"/>
<stop offset="1"/>
</radialGradient>
<radialGradient id="paint6_radial_187_41" cx="0" cy="0" r="1" gradientUnits="userSpaceOnUse" gradientTransform="translate(21.6031 4.87939) scale(5.89142 5.77372)">
<stop stop-color="#FEFFFF"/>
<stop offset="0.4" stop-color="#FEFFFF"/>
<stop offset="0.51" stop-color="#F9FCFC"/>
<stop offset="0.62" stop-color="#EDF3F5"/>
<stop offset="0.7" stop-color="#DEE9EC"/>
<stop offset="0.72" stop-color="#D8E4E8"/>
<stop offset="0.76" stop-color="#CCD8DF"/>
<stop offset="0.8" stop-color="#C8D5DD"/>
<stop offset="0.83" stop-color="#CCD6DE"/>
<stop offset="0.85" stop-color="#D8DBE2"/>
<stop offset="0.88" stop-color="#EDE3E9"/>
<stop offset="0.9" stop-color="#FFEBEF"/>
</radialGradient>
<radialGradient id="paint7_radial_187_41" cx="0" cy="0" r="1" gradientUnits="userSpaceOnUse" gradientTransform="translate(19.148 10.8264) scale(4.82892 4.82904)">
<stop offset="0.48" stop-color="#7A9299"/>
<stop offset="0.67" stop-color="#172E35"/>
<stop offset="0.75"/>
<stop offset="0.82" stop-color="#172E35"/>
</radialGradient>
<clipPath id="clip1_187_41">
<rect width="25.6119" height="22.3834" fill="white" transform="translate(2.88867 4.67432)"/>
</clipPath>
</defs>
</svg>